<?xml version="1.0" encoding="utf-8"?>
<!-- Generator: Adobe Illustrator 16.0.0, SVG Export Plug-In . SVG Version: 6.00 Build 0)  -->
<!DOCTYPE svg PUBLIC "-//W3C//DTD SVG 1.1//EN" "http://www.w3.org/Graphics/SVG/1.1/DTD/svg11.dtd">
<svg version="1.1" id="Layer_1" xmlns="http://www.w3.org/2000/svg" xmlns:xlink="http://www.w3.org/1999/xlink" x="0px" y="0px"
	 width="133.363px" height="27.75px" viewBox="0 -2.75 133.363 27.75" enable-background="new 0 -2.75 133.363 27.75"
	 xml:space="preserve">
<g>
	
		<linearGradient id="SVGID_1_" gradientUnits="userSpaceOnUse" x1="47.3518" y1="592.5869" x2="115.5481" y2="592.5869" gradientTransform="matrix(1 0 0 -1 -47.48 604.9805)">
		<stop  offset="0" style="stop-color:#E96443"/>
		<stop  offset="1" style="stop-color:#C14E7C"/>
	</linearGradient>
	<path fill="url(#SVGID_1_)" d="M9.066,19.012l-0.305-2.097H8.664c-0.666,0.853-1.353,1.456-2.055,1.81
		c-0.701,0.354-1.531,0.529-2.49,0.529c-1.302,0-2.313-0.332-3.035-0.998C0.361,17.589,0,16.667,0,15.488
		c0-1.291,0.537-2.293,1.612-3.009c1.077-0.715,2.636-1.092,4.676-1.133l2.521-0.073v-0.877c0-1.259-0.256-2.21-0.768-2.851
		C7.531,6.902,6.705,6.581,5.568,6.581c-1.227,0-2.497,0.342-3.813,1.023l-0.45-1.048c1.454-0.682,2.892-1.023,4.313-1.023
		c1.454,0,2.541,0.378,3.26,1.133C9.598,7.422,9.956,8.6,9.956,10.2v8.812H9.066z M4.191,18.159c1.413,0,2.529-0.404,3.347-1.214
		c0.816-0.809,1.225-1.932,1.225-3.369v-1.304L6.446,12.37c-1.859,0.089-3.187,0.38-3.979,0.87
		c-0.793,0.492-1.188,1.259-1.188,2.298c0,0.827,0.255,1.474,0.763,1.933S3.266,18.159,4.191,18.159z"/>
	
		<linearGradient id="SVGID_2_" gradientUnits="userSpaceOnUse" x1="47.3528" y1="592.7197" x2="115.5483" y2="592.7197" gradientTransform="matrix(1 0 0 -1 -47.48 604.9805)">
		<stop  offset="0" style="stop-color:#E96443"/>
		<stop  offset="1" style="stop-color:#C14E7C"/>
	</linearGradient>
	<path fill="url(#SVGID_2_)" d="M23.482,19.012v-8.593c0-1.332-0.278-2.301-0.84-2.906c-0.561-0.605-1.431-0.908-2.606-0.908
		c-1.586,0-2.745,0.4-3.48,1.201c-0.735,0.801-1.103,2.098-1.103,3.893v7.313h-1.206V5.765h1.022L15.5,7.58h0.073
		c0.858-1.381,2.393-2.071,4.594-2.071c3.006,0,4.509,1.612,4.509,4.837v8.666H23.482z"/>
	
		<linearGradient id="SVGID_3_" gradientUnits="userSpaceOnUse" x1="47.3469" y1="595.3281" x2="115.5541" y2="595.3281" gradientTransform="matrix(1 0 0 -1 -47.48 604.9805)">
		<stop  offset="0" style="stop-color:#E96443"/>
		<stop  offset="1" style="stop-color:#C14E7C"/>
	</linearGradient>
	<path fill="url(#SVGID_3_)" d="M33.817,5.509c0.959,0,1.787,0.174,2.487,0.522c0.698,0.35,1.322,0.947,1.875,1.792h0.074
		C38.205,6.8,38.18,5.797,38.18,4.814V0.049h1.195v18.963h-0.793l-0.306-2.023H38.18c-1.008,1.511-2.453,2.267-4.338,2.267
		c-1.828,0-3.225-0.567-4.191-1.704c-0.969-1.139-1.45-2.796-1.45-4.974c0-2.291,0.479-4.042,1.438-5.252
		C30.596,6.114,31.989,5.509,33.817,5.509z M33.817,6.605c-1.445,0-2.531,0.508-3.26,1.523c-0.728,1.015-1.091,2.49-1.091,4.424
		c0,3.754,1.459,5.629,4.375,5.629c1.494,0,2.592-0.434,3.29-1.303s1.048-2.305,1.048-4.303V12.37c0-2.047-0.343-3.52-1.029-4.417
		C36.463,7.054,35.354,6.605,33.817,6.605z"/>
	
		<linearGradient id="SVGID_4_" gradientUnits="userSpaceOnUse" x1="47.3499" y1="592.7197" x2="115.5499" y2="592.7197" gradientTransform="matrix(1 0 0 -1 -47.48 604.9805)">
		<stop  offset="0" style="stop-color:#E96443"/>
		<stop  offset="1" style="stop-color:#C14E7C"/>
	</linearGradient>
	<path fill="url(#SVGID_4_)" d="M49.039,5.509c0.561,0,1.162,0.057,1.803,0.17L50.61,6.837c-0.552-0.138-1.125-0.208-1.718-0.208
		c-1.13,0-2.055,0.479-2.779,1.438c-0.723,0.959-1.084,2.17-1.084,3.631v7.314h-1.205V5.765h1.021l0.123,2.388h0.085
		c0.544-0.975,1.126-1.659,1.743-2.053C47.414,5.705,48.161,5.509,49.039,5.509z"/>
	
		<linearGradient id="SVGID_5_" gradientUnits="userSpaceOnUse" x1="47.3479" y1="592.5996" x2="115.5503" y2="592.5996" gradientTransform="matrix(1 0 0 -1 -47.48 604.9805)">
		<stop  offset="0" style="stop-color:#E96443"/>
		<stop  offset="1" style="stop-color:#C14E7C"/>
	</linearGradient>
	<path fill="url(#SVGID_5_)" d="M58.355,19.254c-1.926,0-3.428-0.592-4.503-1.779c-1.077-1.186-1.615-2.847-1.615-4.984
		c0-2.112,0.521-3.804,1.561-5.076c1.04-1.271,2.44-1.907,4.205-1.907c1.56,0,2.791,0.544,3.691,1.633
		c0.901,1.089,1.354,2.567,1.354,4.436v0.975h-9.543c0.017,1.819,0.44,3.209,1.273,4.168s2.025,1.438,3.577,1.438
		c0.756,0,1.42-0.055,1.992-0.159s1.298-0.333,2.176-0.683v1.098c-0.748,0.324-1.438,0.546-2.071,0.664
		C59.817,19.195,59.119,19.254,58.355,19.254z M58.002,6.581c-1.275,0-2.299,0.421-3.072,1.262
		c-0.771,0.841-1.222,2.053-1.352,3.638h8.188c0-1.536-0.334-2.736-1-3.601C60.102,7.014,59.18,6.581,58.002,6.581z"/>
	
		<linearGradient id="SVGID_6_" gradientUnits="userSpaceOnUse" x1="52.6033" y1="591.6221" x2="120.8403" y2="591.6221" gradientTransform="matrix(1 0.0088 0.0088 -1 -57.9749 603.5414)">
		<stop  offset="0" style="stop-color:#E96443"/>
		<stop  offset="1" style="stop-color:#C14E7C"/>
	</linearGradient>
	<path fill="url(#SVGID_6_)" d="M64.83,25c-0.65-0.005-1.197-0.111-1.644-0.318l0.009-1.049c0.56,0.168,1.082,0.254,1.569,0.258
		c1.228,0.012,1.847-0.697,1.859-2.127l0.142-15.99l1.206,0.011l-0.14,15.818c-0.011,1.096-0.275,1.938-0.796,2.526
		C66.516,24.719,65.78,25.008,64.83,25z M66.628,2.091c0.007-0.779,0.267-1.167,0.777-1.163c0.253,0.002,0.448,0.106,0.59,0.31
		c0.14,0.205,0.209,0.494,0.206,0.867c-0.005,0.366-0.078,0.654-0.223,0.864c-0.144,0.21-0.343,0.313-0.593,0.311
		C66.873,3.276,66.621,2.879,66.628,2.091z"/>
	<path fill="#544F51" d="M81.633,16.538c0.633,0,1.141-0.187,1.521-0.556c0.384-0.369,0.573-0.862,0.573-1.479h3.218l0.037,0.071
		c0.031,1.334-0.469,2.449-1.5,3.347c-1.03,0.897-2.313,1.347-3.85,1.347c-1.967,0-3.482-0.621-4.547-1.863
		c-1.065-1.243-1.598-2.84-1.598-4.791v-0.366c0-1.941,0.547-3.538,1.64-4.789s2.65-1.876,4.675-1.876
		c1.063,0,2.018,0.159,2.863,0.475c0.845,0.317,1.547,0.764,2.106,1.341l0.05,3.521h-2.888l-0.586-2.06
		c-0.179-0.154-0.397-0.282-0.658-0.383c-0.26-0.101-0.557-0.152-0.889-0.152c-1.008,0-1.719,0.365-2.133,1.097
		c-0.414,0.731-0.621,1.674-0.621,2.827v0.366c0,1.178,0.188,2.127,0.572,2.846C80.002,16.178,80.674,16.538,81.633,16.538z"/>
	<polygon fill="#544F51" points="88.48,16.879 90.199,16.514 90.199,8.336 88.298,7.97 88.298,5.825 93.758,5.825 93.758,16.514 
		95.464,16.879 95.464,19.012 88.48,19.012 	"/>
	<rect x="90.199" fill="#544F51" width="3.559" height="2.669"/>
	<path fill="#544F51" d="M109.381,12.784c0,1.966-0.439,3.538-1.316,4.716s-2.145,1.768-3.802,1.768
		c-0.771,0-1.442-0.162-2.011-0.481c-0.569-0.32-1.048-0.786-1.438-1.396l-0.257,1.621h-3.07V2.51l-1.889-0.365V0h5.437v7.227
		c0.381-0.528,0.838-0.935,1.37-1.219c0.531-0.284,1.144-0.426,1.834-0.426c1.674,0,2.949,0.632,3.826,1.895
		c0.877,1.263,1.316,2.947,1.316,5.051V12.784L109.381,12.784z M105.834,12.528c0-1.283-0.189-2.301-0.566-3.053
		c-0.378-0.751-1.021-1.127-1.932-1.127c-0.553,0-1.021,0.115-1.402,0.347c-0.381,0.232-0.681,0.563-0.899,0.994v5.571
		c0.22,0.405,0.521,0.715,0.907,0.926c0.386,0.211,0.858,0.315,1.419,0.315c0.917,0,1.561-0.321,1.926-0.97
		c0.365-0.645,0.549-1.561,0.549-2.747L105.834,12.528L105.834,12.528z"/>
	<polygon fill="#544F51" points="111.111,7.97 111.111,5.825 116.571,5.825 116.571,16.514 118.277,16.879 118.277,19.012 
		111.294,19.012 111.294,16.879 113.013,16.514 113.013,8.336 	"/>
	<polygon fill="#544F51" points="114.938,0.682 118.703,0.682 118.728,0.755 115.365,3.924 112.512,3.924 	"/>
	<path fill="#544F51" d="M119.008,2.145V0h5.447v11.017h0.793l2.047-2.889l-1.158-0.158V5.825h6.484V7.97l-1.561,0.354l-2.378,3.266
		l3.328,5.008l1.353,0.281v2.133h-6.093v-2.133l0.73-0.123l-2.023-3.266h-1.522v3.021l1.536,0.366v2.134h-6.801v-2.134l1.719-0.366
		V2.51L119.008,2.145z"/>
</g>
</svg>
